<?xml version='1.0' encoding='UTF-8' standalone='no'?>
<!-- Created with Fritzing (http://www.fritzing.org/) -->
<svg width="6.63741in" x="0in" version="1.2" y="0in" xmlns="http://www.w3.org/2000/svg" height="6.52836in" viewBox="0 0 477.894 470.042" baseProfile="tiny" xmlns:svg="http://www.w3.org/2000/svg">
 <g  id="watermark" stroke-width="0">
  <g  stroke-width="0">
   <path fill="#8C8C8C"  stroke-width="0" d="M370.077,467.714L368.152,462.15L368.117,462.15c0.017,0.214,0.032,0.427,0.044,0.64c0.012,0.183,0.021,0.375,0.028,0.574c0.007,0.203,0.011,0.385,0.011,0.551l0,3.8L367.452,467.715L367.452,461.359l1.199,0l1.791,5.181l0.025,0l1.8,-5.181L373.467,461.359l0,6.354L372.658,467.713l0,-3.854c0,-0.15,0.003,-0.324,0.009,-0.518s0.013,-0.38,0.021,-0.557c0.012,-0.207,0.021,-0.416,0.029,-0.625L372.685,462.159L370.741,467.714L370.077,467.714z"/>
   <path fill="#8C8C8C"  stroke-width="0" d="M377.777,467.714l-0.16,-0.661l-0.035,0c-0.095,0.131,-0.19,0.243,-0.286,0.338c-0.095,0.095,-0.2,0.172,-0.313,0.231c-0.113,0.062,-0.239,0.106,-0.378,0.136c-0.141,0.028,-0.3,0.042,-0.482,0.042c-0.2,0,-0.384,-0.026,-0.552,-0.084c-0.168,-0.057,-0.314,-0.144,-0.438,-0.261c-0.122,-0.116,-0.219,-0.265,-0.288,-0.443S374.741,466.624,374.741,466.379c0,-0.475,0.167,-0.841,0.501,-1.095c0.335,-0.256,0.845,-0.394,1.528,-0.418l0.799,-0.029l0,-0.301c0,-0.193,-0.021,-0.356,-0.063,-0.486s-0.103,-0.234,-0.183,-0.314s-0.178,-0.138,-0.295,-0.172c-0.117,-0.035,-0.251,-0.052,-0.402,-0.052c-0.241,0,-0.464,0.034,-0.671,0.104c-0.207,0.068,-0.407,0.152,-0.597,0.25L375.079,463.273c0.214,-0.117,0.453,-0.217,0.717,-0.298c0.264,-0.079,0.54,-0.12,0.83,-0.12c0.296,0,0.551,0.029,0.768,0.09c0.216,0.059,0.395,0.151,0.534,0.28c0.141,0.13,0.247,0.294,0.316,0.494c0.07,0.199,0.104,0.44,0.104,0.726l0,3.269L377.777,467.714L377.777,467.714zM376.326,467.163c0.178,0,0.341,-0.028,0.491,-0.084c0.149,-0.055,0.282,-0.138,0.391,-0.249c0.11,-0.111,0.196,-0.252,0.258,-0.422c0.063,-0.17,0.094,-0.369,0.094,-0.599l0,-0.43l-0.621,0.03c-0.262,0.012,-0.48,0.041,-0.656,0.086c-0.175,0.047,-0.317,0.113,-0.423,0.193c-0.105,0.084,-0.183,0.185,-0.229,0.301c-0.046,0.117,-0.068,0.25,-0.068,0.398c0,0.268,0.069,0.462,0.211,0.586C375.913,467.1,376.097,467.163,376.326,467.163z"/>
   <path fill="#8C8C8C"  stroke-width="0" d="M382.759,467.075l-0.034,0c-0.063,0.099,-0.139,0.191,-0.224,0.281c-0.085,0.088,-0.184,0.165,-0.296,0.231c-0.111,0.066,-0.237,0.118,-0.376,0.156c-0.139,0.037,-0.295,0.056,-0.47,0.056c-0.271,0,-0.517,-0.051,-0.738,-0.154c-0.223,-0.105,-0.416,-0.262,-0.575,-0.469s-0.282,-0.464,-0.369,-0.771c-0.087,-0.309,-0.13,-0.664,-0.13,-1.069c0,-0.408,0.043,-0.767,0.13,-1.076c0.086,-0.31,0.209,-0.567,0.369,-0.774c0.159,-0.209,0.352,-0.367,0.575,-0.473c0.222,-0.105,0.469,-0.158,0.738,-0.158c0.171,0,0.327,0.02,0.466,0.057s0.264,0.088,0.376,0.152c0.112,0.063,0.211,0.137,0.297,0.221s0.163,0.172,0.227,0.266l0.052,0c-0.009,-0.1,-0.018,-0.191,-0.026,-0.283c-0.006,-0.074,-0.012,-0.152,-0.018,-0.232c-0.005,-0.078,-0.009,-0.143,-0.009,-0.188L382.724,460.951l0.792,0l0,6.763l-0.641,0L382.759,467.075zM381.511,467.146c0.221,0,0.407,-0.033,0.56,-0.102c0.151,-0.065,0.274,-0.168,0.37,-0.304c0.094,-0.136,0.163,-0.308,0.209,-0.512c0.044,-0.204,0.069,-0.442,0.076,-0.716l0,-0.177c0,-0.292,-0.02,-0.552,-0.059,-0.78c-0.04,-0.229,-0.105,-0.418,-0.2,-0.574c-0.094,-0.154,-0.219,-0.271,-0.376,-0.351c-0.156,-0.08,-0.352,-0.119,-0.586,-0.119c-0.391,0,-0.679,0.157,-0.861,0.474c-0.185,0.315,-0.277,0.771,-0.277,1.359c0,0.605,0.092,1.058,0.277,1.354C380.824,466.996,381.114,467.146,381.511,467.146z"/>
   <path fill="#8C8C8C"  stroke-width="0" d="M386.913,467.8c-0.318,0,-0.609,-0.053,-0.874,-0.16c-0.263,-0.106,-0.49,-0.264,-0.68,-0.469c-0.19,-0.207,-0.338,-0.461,-0.442,-0.766c-0.104,-0.306,-0.156,-0.651,-0.156,-1.045s0.049,-0.744,0.144,-1.055c0.096,-0.311,0.229,-0.574,0.405,-0.789c0.174,-0.216,0.382,-0.381,0.623,-0.492c0.241,-0.113,0.51,-0.17,0.802,-0.17c0.287,0,0.545,0.051,0.772,0.153c0.229,0.104,0.423,0.248,0.583,0.435c0.159,0.188,0.282,0.412,0.367,0.674c0.087,0.263,0.13,0.554,0.13,0.873l0,0.49l-3.008,0c0.015,0.559,0.133,0.971,0.354,1.234c0.222,0.263,0.551,0.396,0.987,0.396c0.149,0,0.285,-0.008,0.411,-0.021s0.248,-0.035,0.365,-0.063c0.118,-0.026,0.23,-0.063,0.342,-0.104s0.222,-0.089,0.334,-0.142l0,0.704c-0.116,0.055,-0.229,0.104,-0.341,0.144c-0.112,0.041,-0.226,0.074,-0.343,0.102c-0.117,0.024,-0.239,0.045,-0.365,0.056S387.062,467.8,386.913,467.8zM386.718,463.512c-0.331,0,-0.592,0.112,-0.783,0.339c-0.193,0.227,-0.307,0.555,-0.338,0.985l2.14,0c0,-0.196,-0.021,-0.378,-0.06,-0.541c-0.039,-0.164,-0.1,-0.304,-0.183,-0.419s-0.187,-0.205,-0.315,-0.27C387.051,463.542,386.898,463.512,386.718,463.512z"/>
   <path fill="#8C8C8C"  stroke-width="0" d="M395.727,467.714l-0.729,-2.678c-0.012,-0.053,-0.026,-0.111,-0.044,-0.176c-0.017,-0.065,-0.034,-0.136,-0.051,-0.207c-0.019,-0.072,-0.036,-0.146,-0.055,-0.223c-0.02,-0.074,-0.037,-0.148,-0.055,-0.222c-0.041,-0.169,-0.083,-0.341,-0.126,-0.521l-0.024,0c-0.041,0.182,-0.08,0.356,-0.117,0.524c-0.032,0.146,-0.066,0.294,-0.104,0.448c-0.037,0.152,-0.069,0.283,-0.103,0.391l-0.75,2.66l-0.917,0l-1.221,-4.771l0.83,0l0.57,2.539c0.029,0.129,0.059,0.27,0.086,0.423c0.028,0.151,0.057,0.303,0.082,0.452c0.026,0.148,0.05,0.288,0.07,0.421c0.02,0.132,0.037,0.238,0.049,0.322l0.025,0c0.015,-0.074,0.034,-0.177,0.059,-0.302c0.025,-0.126,0.052,-0.26,0.083,-0.399c0.031,-0.141,0.063,-0.28,0.093,-0.417c0.032,-0.139,0.063,-0.254,0.091,-0.351l0.778,-2.69l0.853,0l0.748,2.69c0.025,0.098,0.056,0.215,0.089,0.348c0.033,0.135,0.065,0.27,0.098,0.407c0.032,0.139,0.061,0.271,0.087,0.397c0.025,0.127,0.045,0.231,0.056,0.315l0.026,0c0.01,-0.074,0.022,-0.177,0.042,-0.302c0.02,-0.126,0.042,-0.265,0.067,-0.415c0.025,-0.149,0.054,-0.306,0.084,-0.464c0.03,-0.157,0.062,-0.306,0.094,-0.44L397.087,462.941l0.809,0l-1.234,4.771L395.727,467.712L395.727,467.714z"/>
   <path fill="#8C8C8C"  stroke-width="0" d="M398.682,461.651c0,-0.175,0.045,-0.3,0.133,-0.379c0.088,-0.078,0.197,-0.117,0.328,-0.117c0.063,0,0.123,0.011,0.181,0.028c0.056,0.019,0.104,0.049,0.147,0.089c0.042,0.041,0.075,0.092,0.101,0.154c0.023,0.063,0.037,0.137,0.037,0.224c0,0.168,-0.045,0.293,-0.138,0.376c-0.092,0.083,-0.2,0.123,-0.327,0.123c-0.131,0,-0.24,-0.04,-0.328,-0.12C398.728,461.948,398.682,461.821,398.682,461.651zM399.534,467.714l-0.791,0L398.743,462.941l0.791,0L399.534,467.714z"/>
   <path fill="#8C8C8C"  stroke-width="0" d="M402.49,467.153c0.052,0,0.111,-0.003,0.176,-0.01c0.066,-0.006,0.128,-0.013,0.189,-0.021c0.061,-0.009,0.116,-0.019,0.167,-0.031c0.051,-0.011,0.089,-0.021,0.115,-0.028l0,0.6c-0.037,0.017,-0.085,0.035,-0.144,0.052c-0.059,0.018,-0.122,0.033,-0.191,0.046c-0.068,0.015,-0.142,0.022,-0.217,0.03s-0.148,0.011,-0.221,0.011c-0.18,0,-0.347,-0.021,-0.5,-0.068c-0.153,-0.048,-0.286,-0.126,-0.397,-0.239c-0.111,-0.112,-0.198,-0.267,-0.263,-0.458c-0.063,-0.192,-0.095,-0.437,-0.095,-0.729L401.109,463.537l-0.674,0L400.435,463.185l0.673,-0.339l0.339,-0.999l0.456,0l0,1.096l1.199,0l0,0.596l-1.199,0l0,2.769c0,0.281,0.045,0.492,0.137,0.636C402.132,467.082,402.281,467.153,402.49,467.153z"/>
   <path fill="#8C8C8C"  stroke-width="0" d="M407.045,467.714l0,-3.073c0,-0.377,-0.076,-0.659,-0.228,-0.848c-0.152,-0.188,-0.391,-0.282,-0.715,-0.282c-0.234,0,-0.433,0.037,-0.592,0.111c-0.158,0.076,-0.286,0.188,-0.384,0.336c-0.097,0.148,-0.166,0.328,-0.208,0.544c-0.042,0.214,-0.063,0.461,-0.063,0.739l0,2.473l-0.791,0L404.064,460.951l0.791,0l0,2.008l-0.034,0.626l0.044,0c0.072,-0.124,0.158,-0.232,0.258,-0.323s0.209,-0.167,0.328,-0.229c0.118,-0.061,0.245,-0.104,0.378,-0.135c0.133,-0.027,0.27,-0.043,0.408,-0.043c0.531,0,0.93,0.139,1.198,0.416c0.268,0.275,0.401,0.719,0.401,1.326l0,3.117L407.045,467.714L407.045,467.714z"/>
  </g>
  <g  stroke-width="0">
   <path fill="#8C8C8C"  stroke-width="0" d="M428.805,467.698l-1.324,0L427.481,461.344l3.642,0l0,1.104l-2.316,0l0,1.639l2.156,0l0,1.1l-2.156,0L428.805,467.698L428.805,467.698z"/>
   <path fill="#8C8C8C"  stroke-width="0" d="M434.838,462.748c0.035,0,0.074,0.002,0.116,0.002c0.042,0.002,0.083,0.006,0.12,0.01c0.041,0.005,0.076,0.009,0.11,0.014c0.031,0.004,0.059,0.01,0.075,0.016l0,1.244c-0.022,-0.008,-0.056,-0.012,-0.095,-0.018c-0.04,-0.007,-0.083,-0.012,-0.128,-0.018c-0.045,-0.004,-0.09,-0.006,-0.133,-0.008c-0.044,-0.002,-0.08,-0.002,-0.108,-0.002c-0.171,0,-0.328,0.021,-0.472,0.064c-0.146,0.043,-0.269,0.113,-0.37,0.211s-0.183,0.225,-0.239,0.383c-0.057,0.157,-0.084,0.352,-0.084,0.581l0,2.474l-1.326,0L432.304,462.839l1.005,0l0.194,0.73l0.066,0c0.068,-0.125,0.145,-0.238,0.226,-0.34c0.081,-0.103,0.172,-0.189,0.272,-0.259c0.1,-0.071,0.212,-0.126,0.338,-0.165C434.531,462.768,434.677,462.748,434.838,462.748z"/>
   <path fill="#8C8C8C"  stroke-width="0" d="M436.156,461.583c0,-0.125,0.018,-0.228,0.056,-0.311c0.038,-0.084,0.089,-0.15,0.154,-0.2c0.065,-0.051,0.142,-0.086,0.229,-0.106c0.088,-0.02,0.184,-0.03,0.281,-0.03c0.099,0,0.191,0.01,0.277,0.03c0.088,0.02,0.164,0.055,0.229,0.106c0.066,0.05,0.117,0.116,0.156,0.2c0.04,0.083,0.059,0.186,0.059,0.311c0,0.122,-0.019,0.225,-0.059,0.309c-0.039,0.084,-0.09,0.151,-0.156,0.203c-0.063,0.05,-0.142,0.086,-0.229,0.108c-0.086,0.021,-0.18,0.032,-0.277,0.032c-0.099,0,-0.191,-0.012,-0.281,-0.032c-0.088,-0.021,-0.164,-0.059,-0.229,-0.108c-0.065,-0.051,-0.116,-0.119,-0.154,-0.203C436.175,461.808,436.156,461.705,436.156,461.583zM437.538,467.698l-1.325,0L436.213,462.839l1.325,0L437.538,467.698z"/>
   <path fill="#8C8C8C"  stroke-width="0" d="M440.947,466.729c0.13,0,0.254,-0.016,0.371,-0.045c0.117,-0.027,0.235,-0.064,0.357,-0.107l0,0.986c-0.124,0.063,-0.278,0.116,-0.463,0.157c-0.184,0.042,-0.385,0.063,-0.603,0.063c-0.211,0,-0.408,-0.024,-0.59,-0.073c-0.185,-0.05,-0.342,-0.137,-0.476,-0.259c-0.133,-0.123,-0.237,-0.288,-0.313,-0.495c-0.077,-0.208,-0.114,-0.468,-0.114,-0.781L439.116,463.834l-0.636,0L438.48,463.273l0.729,-0.443l0.383,-1.024l0.848,0l0,1.034l1.184,0l0,0.995l-1.184,0l0,2.343c0,0.188,0.048,0.327,0.141,0.417C440.674,466.684,440.796,466.729,440.947,466.729z"/>
   <path fill="#8C8C8C"  stroke-width="0" d="M445.82,467.698L442.247,467.698l0,-0.781l1.985,-3.064l-1.853,0L442.379,462.839l3.355,0l0,0.859l-1.92,2.985l2.004,0L445.82,467.698L445.82,467.698z"/>
   <path fill="#8C8C8C"  stroke-width="0" d="M446.759,461.583c0,-0.125,0.02,-0.228,0.057,-0.311c0.038,-0.084,0.09,-0.15,0.153,-0.2c0.065,-0.051,0.144,-0.086,0.23,-0.106s0.182,-0.03,0.28,-0.03c0.098,0,0.19,0.01,0.277,0.03c0.088,0.02,0.164,0.055,0.229,0.106c0.064,0.05,0.117,0.116,0.156,0.2c0.038,0.083,0.059,0.186,0.059,0.311c0,0.122,-0.021,0.225,-0.059,0.309c-0.039,0.084,-0.092,0.151,-0.156,0.203c-0.064,0.05,-0.143,0.086,-0.229,0.108c-0.086,0.021,-0.18,0.032,-0.277,0.032c-0.099,0,-0.192,-0.012,-0.28,-0.032c-0.088,-0.021,-0.165,-0.059,-0.23,-0.108c-0.063,-0.051,-0.115,-0.119,-0.153,-0.203C446.778,461.808,446.759,461.705,446.759,461.583zM448.141,467.698L446.817,467.698L446.817,462.839l1.324,0L448.141,467.698z"/>
   <path fill="#8C8C8C"  stroke-width="0" d="M453.791,467.698L452.467,467.698l0,-2.839c0,-0.351,-0.053,-0.613,-0.158,-0.787c-0.105,-0.176,-0.274,-0.265,-0.508,-0.265c-0.173,0,-0.317,0.035,-0.434,0.104c-0.116,0.07,-0.209,0.173,-0.276,0.31c-0.066,0.136,-0.115,0.304,-0.146,0.504c-0.029,0.2,-0.043,0.429,-0.043,0.687l0,2.286L449.577,467.698L449.577,462.839l1.012,0l0.181,0.621l0.073,0c0.069,-0.124,0.153,-0.23,0.253,-0.321c0.102,-0.089,0.21,-0.163,0.328,-0.221s0.245,-0.103,0.378,-0.128c0.136,-0.028,0.271,-0.043,0.409,-0.043c0.237,0,0.454,0.033,0.647,0.104c0.194,0.067,0.36,0.174,0.5,0.318c0.141,0.146,0.247,0.328,0.321,0.555c0.075,0.225,0.113,0.492,0.113,0.807l0,3.168L453.791,467.698L453.791,467.698z"/>
   <path fill="#8C8C8C"  stroke-width="0" d="M459.221,462.848l0,0.722l-0.708,0.221c0.059,0.1,0.1,0.201,0.122,0.308c0.021,0.106,0.033,0.22,0.033,0.343c0,0.246,-0.039,0.471,-0.116,0.676c-0.078,0.203,-0.193,0.379,-0.349,0.522c-0.152,0.146,-0.346,0.258,-0.578,0.337c-0.23,0.08,-0.5,0.119,-0.808,0.119c-0.067,0,-0.141,-0.003,-0.218,-0.012c-0.078,-0.007,-0.137,-0.015,-0.175,-0.021c-0.057,0.049,-0.104,0.101,-0.137,0.152c-0.033,0.054,-0.049,0.117,-0.049,0.193c0,0.061,0.018,0.108,0.056,0.146s0.087,0.065,0.147,0.087c0.06,0.022,0.133,0.036,0.214,0.044s0.165,0.012,0.251,0.012l0.756,0c0.236,0,0.446,0.025,0.631,0.081c0.186,0.055,0.342,0.135,0.472,0.246c0.129,0.109,0.229,0.249,0.299,0.419c0.069,0.169,0.104,0.372,0.104,0.605c0,0.275,-0.054,0.523,-0.164,0.745c-0.109,0.224,-0.274,0.41,-0.494,0.565c-0.219,0.154,-0.488,0.273,-0.813,0.355c-0.324,0.082,-0.699,0.123,-1.126,0.123c-0.329,0,-0.618,-0.031,-0.864,-0.094c-0.247,-0.063,-0.451,-0.15,-0.617,-0.27c-0.165,-0.116,-0.288,-0.258,-0.371,-0.424c-0.084,-0.164,-0.125,-0.353,-0.125,-0.561c0,-0.177,0.031,-0.33,0.093,-0.46c0.061,-0.131,0.143,-0.243,0.243,-0.336c0.102,-0.093,0.218,-0.168,0.347,-0.227c0.129,-0.058,0.262,-0.103,0.396,-0.134c-0.061,-0.026,-0.12,-0.063,-0.181,-0.109c-0.059,-0.047,-0.113,-0.1,-0.161,-0.159c-0.047,-0.063,-0.086,-0.129,-0.116,-0.203c-0.031,-0.072,-0.047,-0.15,-0.047,-0.23c0,-0.093,0.015,-0.178,0.04,-0.252c0.029,-0.076,0.068,-0.146,0.12,-0.212c0.052,-0.064,0.117,-0.126,0.196,-0.184c0.078,-0.06,0.166,-0.117,0.264,-0.18c-0.254,-0.11,-0.456,-0.287,-0.604,-0.53c-0.15,-0.244,-0.225,-0.529,-0.225,-0.859c0,-0.26,0.04,-0.494,0.121,-0.699c0.081,-0.207,0.2,-0.381,0.356,-0.523c0.155,-0.144,0.35,-0.252,0.582,-0.328c0.231,-0.076,0.499,-0.113,0.801,-0.113c0.057,0,0.122,0.004,0.194,0.012s0.145,0.018,0.216,0.025c0.07,0.01,0.137,0.021,0.196,0.033c0.061,0.01,0.109,0.021,0.146,0.029L459.221,462.848L459.221,462.848zM455.744,468.385c0,0.073,0.017,0.145,0.047,0.211c0.03,0.068,0.08,0.129,0.15,0.182c0.068,0.052,0.16,0.094,0.272,0.124c0.113,0.03,0.252,0.046,0.417,0.046c0.452,0,0.792,-0.063,1.021,-0.191c0.229,-0.127,0.343,-0.298,0.343,-0.514c0,-0.183,-0.07,-0.304,-0.213,-0.364c-0.143,-0.06,-0.361,-0.091,-0.66,-0.091l-0.613,0c-0.077,0,-0.162,0.009,-0.252,0.027c-0.09,0.018,-0.172,0.052,-0.248,0.099c-0.075,0.046,-0.139,0.108,-0.188,0.184S455.744,468.27,455.744,468.385zM456.223,464.43c0,0.263,0.049,0.468,0.147,0.612c0.098,0.146,0.248,0.217,0.447,0.217c0.209,0,0.358,-0.07,0.451,-0.217c0.094,-0.145,0.14,-0.35,0.14,-0.612c0,-0.261,-0.046,-0.468,-0.137,-0.622c-0.092,-0.152,-0.243,-0.229,-0.454,-0.229C456.42,463.578,456.223,463.861,456.223,464.43z"/>
   <path fill="#8C8C8C"  stroke-width="0" d="M459.971,467.077c0,-0.136,0.02,-0.251,0.059,-0.346c0.04,-0.095,0.094,-0.172,0.163,-0.229c0.069,-0.058,0.149,-0.101,0.244,-0.126c0.092,-0.026,0.191,-0.039,0.299,-0.039c0.102,0,0.198,0.013,0.289,0.039c0.092,0.025,0.172,0.068,0.242,0.126c0.068,0.057,0.123,0.134,0.163,0.229c0.041,0.095,0.062,0.21,0.062,0.346c0,0.13,-0.021,0.242,-0.062,0.335c-0.04,0.093,-0.095,0.17,-0.163,0.229c-0.07,0.062,-0.15,0.104,-0.242,0.133c-0.091,0.027,-0.188,0.042,-0.289,0.042c-0.106,0,-0.207,-0.015,-0.299,-0.042c-0.095,-0.027,-0.175,-0.071,-0.244,-0.133c-0.069,-0.061,-0.123,-0.138,-0.163,-0.229C459.989,467.319,459.971,467.207,459.971,467.077z"/>
   <path fill="#8C8C8C"  stroke-width="0" d="M466.93,465.259c0,0.406,-0.052,0.767,-0.153,1.079c-0.104,0.313,-0.251,0.576,-0.443,0.79c-0.192,0.215,-0.428,0.378,-0.704,0.489c-0.277,0.111,-0.587,0.167,-0.933,0.167c-0.321,0,-0.617,-0.056,-0.886,-0.167c-0.271,-0.112,-0.503,-0.274,-0.698,-0.489c-0.195,-0.214,-0.35,-0.479,-0.458,-0.79c-0.11,-0.313,-0.165,-0.673,-0.165,-1.079c0,-0.402,0.051,-0.76,0.154,-1.072c0.103,-0.314,0.25,-0.576,0.442,-0.789C463.278,463.184,463.512,463.023,463.787,462.914s0.587,-0.164,0.937,-0.164c0.319,0,0.615,0.055,0.886,0.164c0.27,0.111,0.502,0.271,0.695,0.484c0.197,0.213,0.351,0.477,0.459,0.789C466.874,464.499,466.93,464.857,466.93,465.259zM463.844,465.259c0,0.484,0.068,0.851,0.205,1.093c0.137,0.246,0.357,0.368,0.664,0.368c0.306,0,0.524,-0.123,0.66,-0.37c0.137,-0.245,0.205,-0.608,0.205,-1.091s-0.068,-0.846,-0.205,-1.084c-0.136,-0.238,-0.358,-0.357,-0.668,-0.357c-0.305,0,-0.523,0.119,-0.659,0.357C463.911,464.414,463.844,464.777,463.844,465.259z"/>
   <path fill="#8C8C8C"  stroke-width="0" d="M470.65,462.748c0.035,0,0.073,0.002,0.115,0.002c0.042,0.002,0.083,0.006,0.12,0.01c0.04,0.005,0.076,0.009,0.109,0.014c0.033,0.004,0.059,0.01,0.076,0.016l0,1.244c-0.023,-0.008,-0.055,-0.012,-0.095,-0.018c-0.041,-0.007,-0.083,-0.012,-0.13,-0.018c-0.045,-0.004,-0.089,-0.006,-0.132,-0.008c-0.045,-0.002,-0.08,-0.002,-0.108,-0.002c-0.171,0,-0.328,0.021,-0.473,0.064c-0.144,0.043,-0.267,0.113,-0.37,0.211c-0.102,0.098,-0.182,0.225,-0.237,0.383c-0.058,0.157,-0.084,0.352,-0.084,0.581l0,2.474l-1.326,0L468.115,462.839l1.004,0l0.195,0.73l0.065,0c0.068,-0.125,0.146,-0.238,0.226,-0.34c0.081,-0.103,0.172,-0.189,0.271,-0.259c0.101,-0.071,0.213,-0.126,0.339,-0.165C470.344,462.768,470.488,462.748,470.65,462.748z"/>
   <path fill="#8C8C8C"  stroke-width="0" d="M475.958,462.848l0,0.722l-0.708,0.221c0.058,0.1,0.099,0.201,0.121,0.308s0.034,0.22,0.034,0.343c0,0.246,-0.039,0.471,-0.116,0.676c-0.079,0.203,-0.194,0.379,-0.349,0.522c-0.153,0.146,-0.348,0.258,-0.578,0.337c-0.232,0.08,-0.501,0.119,-0.809,0.119c-0.067,0,-0.141,-0.003,-0.219,-0.012c-0.078,-0.007,-0.135,-0.015,-0.173,-0.021c-0.058,0.049,-0.104,0.101,-0.137,0.152c-0.034,0.054,-0.05,0.117,-0.05,0.193c0,0.061,0.019,0.108,0.057,0.146c0.037,0.037,0.086,0.065,0.146,0.087c0.062,0.021,0.133,0.036,0.215,0.044c0.08,0.008,0.164,0.012,0.251,0.012l0.756,0c0.234,0,0.445,0.025,0.63,0.081c0.186,0.055,0.343,0.135,0.472,0.246c0.129,0.109,0.229,0.249,0.298,0.419c0.07,0.169,0.104,0.372,0.104,0.605c0,0.275,-0.054,0.523,-0.165,0.745c-0.109,0.224,-0.275,0.41,-0.493,0.565c-0.219,0.154,-0.489,0.273,-0.815,0.355c-0.323,0.082,-0.698,0.123,-1.125,0.123c-0.329,0,-0.617,-0.031,-0.864,-0.094c-0.246,-0.063,-0.451,-0.15,-0.617,-0.27c-0.164,-0.116,-0.287,-0.258,-0.371,-0.424c-0.083,-0.164,-0.124,-0.353,-0.124,-0.561c0,-0.177,0.03,-0.33,0.091,-0.46c0.063,-0.131,0.144,-0.243,0.244,-0.336c0.103,-0.093,0.217,-0.168,0.346,-0.227c0.129,-0.058,0.263,-0.103,0.398,-0.134c-0.062,-0.026,-0.121,-0.063,-0.182,-0.109c-0.06,-0.047,-0.113,-0.1,-0.16,-0.159c-0.047,-0.063,-0.087,-0.129,-0.117,-0.203c-0.03,-0.073,-0.045,-0.151,-0.045,-0.231c0,-0.093,0.014,-0.178,0.04,-0.252c0.027,-0.076,0.067,-0.146,0.12,-0.212c0.051,-0.064,0.117,-0.126,0.194,-0.184c0.078,-0.06,0.166,-0.117,0.266,-0.18c-0.255,-0.109,-0.456,-0.287,-0.606,-0.529c-0.148,-0.244,-0.223,-0.531,-0.223,-0.861c0,-0.26,0.039,-0.493,0.121,-0.698c0.081,-0.207,0.199,-0.382,0.354,-0.524c0.156,-0.143,0.351,-0.252,0.583,-0.328c0.231,-0.074,0.499,-0.111,0.8,-0.111c0.059,0,0.123,0.003,0.195,0.011s0.146,0.017,0.215,0.026c0.072,0.009,0.138,0.021,0.198,0.031c0.062,0.012,0.108,0.021,0.145,0.03L475.958,462.847L475.958,462.848zM472.482,468.385c0,0.073,0.017,0.145,0.046,0.211c0.031,0.068,0.081,0.129,0.149,0.182c0.07,0.052,0.161,0.094,0.273,0.124c0.114,0.03,0.252,0.046,0.418,0.046c0.451,0,0.792,-0.063,1.021,-0.191c0.229,-0.127,0.343,-0.298,0.343,-0.514c0,-0.183,-0.071,-0.304,-0.214,-0.364s-0.361,-0.091,-0.66,-0.091l-0.612,0c-0.079,0,-0.163,0.009,-0.252,0.027c-0.09,0.019,-0.173,0.052,-0.248,0.099c-0.076,0.046,-0.139,0.108,-0.188,0.184C472.508,468.172,472.482,468.27,472.482,468.385zM472.959,464.43c0,0.263,0.049,0.468,0.148,0.612c0.099,0.146,0.248,0.217,0.447,0.217c0.209,0,0.358,-0.07,0.451,-0.217c0.094,-0.145,0.141,-0.35,0.141,-0.612c0,-0.261,-0.046,-0.468,-0.138,-0.622c-0.092,-0.152,-0.243,-0.229,-0.454,-0.229C473.157,463.578,472.959,463.861,472.959,464.43z"/>
  </g>
  <g  stroke-width="0">
   <path fill="#8C8C8C"  stroke-width="0" d="M421.552,459.968l-8.146,0c-0.532,0,-0.965,0.432,-0.965,0.964l0,8.146c0,0.531,0.433,0.964,0.965,0.964l5.55,0l3.557,-3.558L422.513,460.932C422.516,460.399,422.084,459.968,421.552,459.968zM419.875,463.697l-1.075,0l0,0.401l1.075,0l0,1.601l-2.196,0l0,2.058l-2.572,0l0,-4.67l0.988,-0.99l3.779,0l0,1.603l0.001,0L419.875,463.697z"/>
  </g>
 </g>
 <g transform="translate(0,193.854)">
  <g  id="schematic" stroke-width="0">
   <rect width="86.4" x="1.08" y="22.68" fill="none"  height="64.8" stroke="#000000" stroke-linejoin="round" stroke-linecap="round" stroke-width="2.16"/>
   <text x="44.28" y="52.92" fill="#000000" font-family="DroidSans"  text-anchor="middle" stroke="none" id="label0" stroke-width="0" font-size="16.92">LM</text>
   <text x="44.28" y="68.76" fill="#000000" font-family="DroidSans"  text-anchor="middle" stroke="none" id="label1" stroke-width="0" font-size="16.92">35</text>
   <line fill="none"  stroke="#000000" stroke-linejoin="round" stroke-linecap="round" y1="1.08" stroke-width="2.16" x1="44.28" y2="21.6" x2="44.28"/>
   <line fill="none"  stroke="#000000" stroke-linejoin="round" stroke-linecap="round" y1="55.08" stroke-width="2.16" x1="88.56" y2="55.08" x2="109.08"/>
   <line fill="none"  stroke="#000000" stroke-linejoin="round" stroke-linecap="round" y1="88.56" stroke-width="2.16" x1="44.28" y2="109.08" x2="44.28"/>
   <rect width="2.16" x="43.2" y="0" fill="none"  height="21.6" id="connector0pin" stroke-width="0"/>
   <rect width="2.16" x="43.2" y="0" fill="none"  height="2.16" id="connector0terminal" stroke-width="0"/>
   <text x="44.28" y="32.04" font-family="DroidSans" fill="#000000"  text-anchor="middle" stroke="none" id="label0" stroke-width="0" font-size="9.36">+Vs</text>
   <rect width="21.6" x="88.56" y="54" fill="none"  height="2.16" id="connector1pin" stroke-width="0"/>
   <rect width="2.16" x="108" y="54" fill="none"  height="2.16" id="connector1terminal" stroke-width="0"/>
   <text x="84.96" y="57.24" font-family="DroidSans" fill="#000000"  text-anchor="end" stroke="none" id="label1" stroke-width="0" font-size="9.36">Vout</text>
   <rect width="2.16" x="43.2" y="88.56" fill="none"  height="21.6" id="connector2pin" stroke-width="0"/>
   <rect width="2.16" x="43.2" y="108" fill="none"  height="2.16" id="connector2terminal" stroke-width="0"/>
   <text x="44.28" y="84.96" font-family="DroidSans" fill="#000000"  text-anchor="middle" stroke="none" id="label2" stroke-width="0" font-size="9.36">GND</text>
  </g>
 </g>
 <g transform="translate(171.774,23.9562)">
  <g  id="schematic" stroke-width="0">
   <rect width="10.488" x="1.299" y="126.765" fill="none"  height="2.1" id="connector28pin" stroke-width="0"/>
   <rect width="10.488" x="1.299" y="105.884" fill="none"  height="2.1" id="connector29pin" stroke-width="0"/>
   <rect width="10.488" x="1.299" y="85.004" fill="none"  height="2.1" id="connector0pin" stroke-width="0"/>
   <rect width="2.099" x="106.41" y="393.897" fill="none"  height="10.488" id="connector1pin" stroke-width="0"/>
   <rect width="10.486" x="203.165" y="42.676" fill="none"  height="2.099" id="connector2pin" stroke-width="0"/>
   <rect width="10.488" x="203.172" y="63.912" fill="none"  height="2.099" id="connector3pin" stroke-width="0"/>
   <rect width="10.488" x="203.172" y="85.148" fill="none"  height="2.099" id="connector4pin" stroke-width="0"/>
   <rect width="10.488" x="203.172" y="106.387" fill="none"  height="2.098" id="connector5pin" stroke-width="0"/>
   <rect width="10.488" x="203.172" y="127.622" fill="none"  height="2.099" id="connector6pin" stroke-width="0"/>
   <rect width="10.488" x="203.172" y="148.857" fill="none"  height="2.099" id="connector7pin" stroke-width="0"/>
   <rect width="10.488" x="203.172" y="170.095" fill="none"  height="2.099" id="connector8pin" stroke-width="0"/>
   <rect width="10.488" x="203.172" y="191.331" fill="none"  height="2.1" id="connector9pin" stroke-width="0"/>
   <rect width="10.488" x="203.172" y="212.567" fill="none"  height="2.1" id="connector10pin" stroke-width="0"/>
   <rect width="10.488" x="203.172" y="233.803" fill="none"  height="2.098" id="connector11pin" stroke-width="0"/>
   <rect width="10.488" x="203.172" y="255.04" fill="none"  height="2.101" id="connector12pin" stroke-width="0"/>
   <rect width="10.488" x="203.172" y="276.276" fill="none"  height="2.098" id="connector13pin" stroke-width="0"/>
   <rect width="10.488" x="203.172" y="297.51" fill="none"  height="2.1" id="connector14pin" stroke-width="0"/>
   <rect width="10.488" x="203.172" y="360.508" fill="none"  height="2.1" id="connector31pin" stroke-width="0"/>
   <rect width="10.488" x="203.172" y="339.627" fill="none"  height="2.1" id="connector30pin" stroke-width="0"/>
   <rect width="10.488" x="203.172" y="318.747" fill="none"  height="2.1" id="connector15pin" stroke-width="0"/>
   <rect width="10.486" x="1.289" y="63.768" fill="none"  height="2.099" id="connector16pin" stroke-width="0"/>
   <rect width="2.101" x="63.896" y="0.975" fill="none"  height="10.488" id="connector17pin" stroke-width="0"/>
   <rect width="2.098" x="85.132" y="0.975" fill="none"  height="10.488" id="connector18pin" stroke-width="0"/>
   <rect width="2.097" x="106.406" y="393.897" fill="none"  height="10.488" id="connector19pin" stroke-width="0"/>
   <rect width="2.099" x="106.41" y="393.897" fill="none"  height="10.488" id="connector20pin" stroke-width="0"/>
   <rect width="2.1" x="148.841" y="0.975" fill="none"  height="10.488" id="connector21pin" stroke-width="0"/>
   <rect width="10.488" x="1.26" y="233.637" fill="none"  height="2.099" id="connector22pin" stroke-width="0"/>
   <rect width="10.488" x="1.26" y="254.874" fill="none"  height="2.101" id="connector23pin" stroke-width="0"/>
   <rect width="10.488" x="1.26" y="276.109" fill="none"  height="2.099" id="connector24pin" stroke-width="0"/>
   <rect width="10.488" x="1.26" y="297.345" fill="none"  height="2.099" id="connector25pin" stroke-width="0"/>
   <rect width="10.488" x="1.26" y="318.584" fill="none"  height="2.098" id="connector26pin" stroke-width="0"/>
   <rect width="10.488" x="1.26" y="339.819" fill="none"  height="2.098" id="connector27pin" stroke-width="0"/>
   <rect width="1.995" x="1.299" y="126.765" fill="none"  height="2.1" id="connector28terminal" stroke-width="0"/>
   <rect width="1.995" x="1.299" y="105.884" fill="none"  height="2.1" id="connector29terminal" stroke-width="0"/>
   <rect width="1.995" x="1.299" y="85.004" fill="none"  height="2.1" id="connector0terminal" stroke-width="0"/>
   <rect width="2.099" x="106.41" y="402.393" fill="none"  height="1.992" id="connector1terminal" stroke-width="0"/>
   <rect width="1.993" x="211.659" y="42.676" fill="none"  height="2.099" id="connector2terminal" stroke-width="0"/>
   <rect width="1.994" x="211.667" y="63.912" fill="none"  height="2.099" id="connector3terminal" stroke-width="0"/>
   <rect width="1.994" x="211.667" y="85.148" fill="none"  height="2.099" id="connector4terminal" stroke-width="0"/>
   <rect width="1.994" x="211.667" y="106.387" fill="none"  height="2.098" id="connector5terminal" stroke-width="0"/>
   <rect width="1.994" x="211.667" y="127.622" fill="none"  height="2.099" id="connector6terminal" stroke-width="0"/>
   <rect width="1.994" x="211.667" y="148.857" fill="none"  height="2.099" id="connector7terminal" stroke-width="0"/>
   <rect width="1.994" x="211.667" y="170.095" fill="none"  height="2.099" id="connector8terminal" stroke-width="0"/>
   <rect width="1.994" x="211.667" y="191.331" fill="none"  height="2.1" id="connector9terminal" stroke-width="0"/>
   <rect width="1.994" x="211.667" y="212.567" fill="none"  height="2.1" id="connector10terminal" stroke-width="0"/>
   <rect width="1.994" x="211.667" y="233.803" fill="none"  height="2.098" id="connector11terminal" stroke-width="0"/>
   <rect width="1.994" x="211.667" y="255.04" fill="none"  height="2.101" id="connector12terminal" stroke-width="0"/>
   <rect width="1.994" x="211.667" y="276.276" fill="none"  height="2.098" id="connector13terminal" stroke-width="0"/>
   <rect width="1.994" x="211.667" y="297.51" fill="none"  height="2.1" id="connector14terminal" stroke-width="0"/>
   <rect width="1.994" x="211.667" y="360.508" fill="none"  height="2.1" id="connector31terminal" stroke-width="0"/>
   <rect width="1.994" x="211.667" y="339.627" fill="none"  height="2.1" id="connector30terminal" stroke-width="0"/>
   <rect width="1.994" x="211.667" y="318.747" fill="none"  height="2.1" id="connector15terminal" stroke-width="0"/>
   <rect width="1.995" x="1.289" y="63.768" fill="none"  height="2.099" id="connector16terminal" stroke-width="0"/>
   <rect width="2.101" x="63.896" y="0.975" fill="none"  height="1.995" id="connector17terminal" stroke-width="0"/>
   <rect width="2.098" x="85.132" y="0.975" fill="none"  height="1.995" id="connector18terminal" stroke-width="0"/>
   <rect width="2.097" x="106.406" y="402.393" fill="none"  height="1.992" id="connector19terminal" stroke-width="0"/>
   <rect width="2.099" x="106.41" y="402.393" fill="none"  height="1.992" id="connector20terminal" stroke-width="0"/>
   <rect width="2.1" x="148.841" y="0.975" fill="none"  height="1.995" id="connector21terminal" stroke-width="0"/>
   <rect width="1.995" x="1.26" y="233.637" fill="none"  height="2.099" id="connector22terminal" stroke-width="0"/>
   <rect width="1.995" x="1.26" y="254.874" fill="none"  height="2.101" id="connector23terminal" stroke-width="0"/>
   <rect width="1.995" x="1.26" y="276.109" fill="none"  height="2.099" id="connector24terminal" stroke-width="0"/>
   <rect width="1.995" x="1.26" y="297.345" fill="none"  height="2.099" id="connector25terminal" stroke-width="0"/>
   <rect width="1.995" x="1.26" y="318.584" fill="none"  height="2.098" id="connector26terminal" stroke-width="0"/>
   <rect width="1.995" x="1.26" y="339.819" fill="none"  height="2.098" id="connector27terminal" stroke-width="0"/>
   <g  stroke-width="0">
    <rect width="169.973" x="22.446" y="22.211" fill="none"  height="360.936" stroke="#000000" stroke-linejoin="round" stroke-linecap="round" stroke-width="2.415"/>
    <line fill="none"  stroke="#000000" stroke-linejoin="round" stroke-linecap="round" y1="64.65" stroke-width="2.2495" x1="1.291" y2="64.65" x2="22.527"/>
    <line fill="none"  stroke="#000000" stroke-linejoin="round" stroke-linecap="round" y1="127.648" stroke-width="2.415" x1="1.299" y2="127.648" x2="22.446"/>
    <text x="0" y="0" font-family="'DroidSans'"  stroke-width="0" transform="matrix(1, 0, 0, 1, 30.4226, 130.195)" font-size="9.9889">N/C</text>
    <line fill="none"  stroke="#000000" stroke-linejoin="round" stroke-linecap="round" y1="106.768" stroke-width="2.415" x1="1.299" y2="106.768" x2="22.446"/>
    <text x="0" y="0" font-family="'DroidSans'"  stroke-width="0" transform="matrix(1, 0, 0, 1, 30.4226, 109.315)" font-size="9.9889">IO REF</text>
    <line fill="none"  stroke="#000000" stroke-linejoin="round" stroke-linecap="round" y1="85.887" stroke-width="2.415" x1="1.299" y2="85.887" x2="22.446"/>
    <line fill="none"  stroke="#000000" stroke-linejoin="round" stroke-linecap="round" y1="234.518" stroke-width="2.415" x1="1.26" y2="234.518" x2="22.446"/>
    <line fill="none"  stroke="#000000" stroke-linejoin="round" stroke-linecap="round" y1="255.754" stroke-width="2.415" x1="1.26" y2="255.754" x2="22.446"/>
    <line fill="none"  stroke="#000000" stroke-linejoin="round" stroke-linecap="round" y1="276.989" stroke-width="2.415" x1="1.26" y2="276.989" x2="22.446"/>
    <line fill="none"  stroke="#000000" stroke-linejoin="round" stroke-linecap="round" y1="298.225" stroke-width="2.415" x1="1.26" y2="298.225" x2="22.446"/>
    <line fill="none"  stroke="#000000" stroke-linejoin="round" stroke-linecap="round" y1="319.463" stroke-width="2.415" x1="1.26" y2="319.463" x2="22.446"/>
    <line fill="none"  stroke="#000000" stroke-linejoin="round" stroke-linecap="round" y1="340.7" stroke-width="2.415" x1="1.26" y2="340.7" x2="22.446"/>
    <line fill="none"  stroke="#000000" stroke-linejoin="round" stroke-linecap="round" y1="43.894" stroke-width="1.9517" x1="213.653" y2="43.894" x2="192.418"/>
    <line fill="none"  stroke="#000000" stroke-linejoin="round" stroke-linecap="round" y1="65.129" stroke-width="2.415" x1="213.66" y2="65.129" x2="192.418"/>
    <line fill="none"  stroke="#000000" stroke-linejoin="round" stroke-linecap="round" y1="86.367" stroke-width="2.415" x1="213.66" y2="86.367" x2="192.418"/>
    <line fill="none"  stroke="#000000" stroke-linejoin="round" stroke-linecap="round" y1="107.603" stroke-width="2.415" x1="213.66" y2="107.603" x2="192.418"/>
    <line fill="none"  stroke="#000000" stroke-linejoin="round" stroke-linecap="round" y1="128.838" stroke-width="2.415" x1="213.66" y2="128.838" x2="192.418"/>
    <line fill="none"  stroke="#000000" stroke-linejoin="round" stroke-linecap="round" y1="150.076" stroke-width="2.415" x1="213.66" y2="150.076" x2="192.418"/>
    <line fill="none"  stroke="#000000" stroke-linejoin="round" stroke-linecap="round" y1="171.312" stroke-width="2.415" x1="213.66" y2="171.312" x2="192.418"/>
    <line fill="none"  stroke="#000000" stroke-linejoin="round" stroke-linecap="round" y1="192.548" stroke-width="2.415" x1="213.66" y2="192.548" x2="192.418"/>
    <line fill="none"  stroke="#000000" stroke-linejoin="round" stroke-linecap="round" y1="213.784" stroke-width="2.415" x1="213.66" y2="213.784" x2="192.418"/>
    <line fill="none"  stroke="#000000" stroke-linejoin="round" stroke-linecap="round" y1="235.02" stroke-width="2.415" x1="213.66" y2="235.02" x2="192.418"/>
    <line fill="none"  stroke="#000000" stroke-linejoin="round" stroke-linecap="round" y1="256.256" stroke-width="2.415" x1="213.66" y2="256.256" x2="192.418"/>
    <line fill="none"  stroke="#000000" stroke-linejoin="round" stroke-linecap="round" y1="277.495" stroke-width="2.415" x1="213.66" y2="277.495" x2="192.418"/>
    <line fill="none"  stroke="#000000" stroke-linejoin="round" stroke-linecap="round" y1="340.491" stroke-width="2.415" x1="213.66" y2="340.491" x2="192.418"/>
    <line fill="none"  stroke="#000000" stroke-linejoin="round" stroke-linecap="round" y1="361.727" stroke-width="2.415" x1="213.66" y2="361.727" x2="192.418"/>
    <text x="0" y="0" font-family="'DroidSans'"  stroke-width="0" transform="matrix(1, 0, 0, 1, 165.78, 343.242)" font-size="9.9889">SCL</text>
    <text x="0" y="0" font-family="'DroidSans'"  stroke-width="0" transform="matrix(1, 0, 0, 1, 163.804, 364.424)" font-size="9.9889">SDA</text>
    <line fill="none"  stroke="#000000" stroke-linejoin="round" stroke-linecap="round" y1="298.729" stroke-width="2.415" x1="213.66" y2="298.729" x2="192.418"/>
    <line fill="none"  stroke="#000000" stroke-linejoin="round" stroke-linecap="round" y1="319.965" stroke-width="2.415" x1="213.66" y2="319.965" x2="192.418"/>
    <text x="0" y="0" font-family="'DroidSans'"  stroke-width="0" transform="matrix(1, 0, 0, 1, 30.4207, 67.3672)" font-size="9.9889">RST</text>
    <text x="0" y="0" font-family="'DroidSans'"  stroke-width="0" transform="matrix(1, 0, 0, 1, 30.4226, 88.4355)" font-size="9.9889">AREF</text>
    <text x="0" y="0" font-family="'DroidSans'"  stroke-width="0" transform="matrix(1, 0, 0, 1, 32.2927, 237.01)" font-size="9.9889">A0</text>
    <text x="0" y="0" font-family="'DroidSans'"  stroke-width="0" transform="matrix(1, 0, 0, 1, 32.2927, 258.446)" font-size="9.9889">A1</text>
    <text x="0" y="0" font-family="'DroidSans'"  stroke-width="0" transform="matrix(1, 0, 0, 1, 32.2927, 279.885)" font-size="9.9889">A2</text>
    <text x="0" y="0" font-family="'DroidSans'"  stroke-width="0" transform="matrix(1, 0, 0, 1, 32.2927, 301.323)" font-size="9.9889">A3</text>
    <text x="0" y="0" font-family="'DroidSans'"  stroke-width="0" transform="matrix(1, 0, 0, 1, 32.2927, 322.76)" font-size="9.9889">A4</text>
    <text x="0" y="0" font-family="'DroidSans'"  stroke-width="0" transform="matrix(1, 0, 0, 1, 32.2927, 344.198)" font-size="9.9889">A5</text>
    <line fill="none"  stroke="#000000" stroke-linejoin="round" stroke-linecap="round" y1="22.211" stroke-width="1.9517" x1="64.9" y2="0.975" x2="64.9"/>
    <line fill="none"  stroke="#000000" stroke-linejoin="round" stroke-linecap="round" y1="22.211" stroke-width="1.9517" x1="86.136" y2="0.975" x2="86.136"/>
    <line fill="none"  stroke="#000000" stroke-linejoin="round" stroke-linecap="round" y1="22.211" stroke-width="1.9517" x1="149.845" y2="0.975" x2="149.845"/>
    <text x="0" y="0" font-family="'DroidSans'"  stroke-width="0" transform="matrix(1, 0, 0, 1, 56.5574, 39.3721)" font-size="9.9889">3V3</text>
    <text x="0" y="0" font-family="'DroidSans'"  stroke-width="0" transform="matrix(1, 0, 0, 1, 80.5505, 39.3721)" font-size="9.9889">5V</text>
    <text x="0" y="0" font-family="'DroidSans'"  stroke-width="0" transform="matrix(1, 0, 0, 1, 141.749, 39.3721)" font-size="9.9889">Vin </text>
    <text x="0" y="0" font-family="'DroidSans'"  stroke-width="0" transform="matrix(0, 1, -1, 0, 57.3362, 264.112)" font-size="9.9889">Analog Input</text>
    <text x="0" y="0" font-family="'DroidSans'"  stroke-width="0" transform="matrix(1, 0, 0, 1, 163.435, 88.8037)" font-size="9.9889">D11</text>
    <text x="0" y="0" font-family="'DroidSans'"  stroke-width="0" transform="matrix(1, 0, 0, 1, 163.435, 110.413)" font-size="9.9889">D10</text>
    <text x="0" y="0" font-family="'DroidSans'"  stroke-width="0" transform="matrix(1, 0, 0, 1, 168.935, 131.595)" font-size="9.9889">D9</text>
    <text x="0" y="0" font-family="'DroidSans'"  stroke-width="0" transform="matrix(1, 0, 0, 1, 168.935, 152.352)" font-size="9.9889">D8</text>
    <text x="0" y="0" font-family="'DroidSans'"  stroke-width="0" transform="matrix(1, 0, 0, 1, 168.935, 173.961)" font-size="9.9889">D7</text>
    <text x="0" y="0" font-family="'DroidSans'"  stroke-width="0" transform="matrix(1, 0, 0, 1, 168.935, 194.72)" font-size="9.9889">D6</text>
    <text x="0" y="0" font-family="'DroidSans'"  stroke-width="0" transform="matrix(1, 0, 0, 1, 168.935, 216.327)" font-size="9.9889">D5</text>
    <text x="0" y="0" font-family="'DroidSans'"  stroke-width="0" transform="matrix(1, 0, 0, 1, 168.935, 237.508)" font-size="9.9889">D4</text>
    <text x="0" y="0" font-family="'DroidSans'"  stroke-width="0" transform="matrix(1, 0, 0, 1, 168.935, 259.116)" font-size="9.9889">D3</text>
    <text x="0" y="0" font-family="'DroidSans'"  stroke-width="0" transform="matrix(1, 0, 0, 1, 195.706, 253.057)" font-size="6.9922">PWM</text>
    <text x="0" y="0" font-family="'DroidSans'"  stroke-width="0" transform="matrix(1, 0, 0, 1, 196.698, 295.217)" font-size="6.9922">TX</text>
    <text x="0" y="0" font-family="'DroidSans'"  stroke-width="0" transform="matrix(1, 0, 0, 1, 196.698, 315.614)" font-size="6.9922">RX</text>
    <text x="0" y="0" font-family="'DroidSans'"  stroke-width="0" transform="matrix(1, 0, 0, 1, 195.706, 125.922)" font-size="6.9922">PWM</text>
    <text x="0" y="0" font-family="'DroidSans'"  stroke-width="0" transform="matrix(1, 0, 0, 1, 195.706, 104.583)" font-size="6.9922">PWM</text>
    <text x="0" y="0" font-family="'DroidSans'"  stroke-width="0" transform="matrix(1, 0, 0, 1, 195.706, 210.545)" font-size="6.9922">PWM</text>
    <text x="0" y="0" font-family="'DroidSans'"  stroke-width="0" transform="matrix(1, 0, 0, 1, 195.706, 189.208)" font-size="6.9922">PWM</text>
    <text x="0" y="0" font-family="'DroidSans'"  stroke-width="0" transform="matrix(1, 0, 0, 1, 195.706, 83.4561)" font-size="6.9922">PWM</text>
    <text x="0" y="0" font-family="'DroidSans'"  stroke-width="0" transform="matrix(1, 0, 0, 1, 168.935, 279.873)" font-size="9.9889">D2</text>
    <text x="0" y="0" font-family="'DroidSans'"  stroke-width="0" transform="matrix(1, 0, 0, 1, 168.935, 301.481)" font-size="9.9889">D1</text>
    <text x="0" y="0" font-family="'DroidSans'"  stroke-width="0" transform="matrix(1, 0, 0, 1, 163.435, 46.4385)" font-size="9.9889">D13</text>
    <text x="0" y="0" font-family="'DroidSans'"  stroke-width="0" transform="matrix(1, 0, 0, 1, 163.435, 67.6211)" font-size="9.9889">D12</text>
    <text x="0" y="0" font-family="'DroidSans'"  stroke-width="0" transform="matrix(1, 0, 0, 1, 168.935, 322.665)" font-size="9.9889">D0</text>
    <text x="0" y="0" font-family="'DroidSans'"  stroke-width="0" transform="matrix(0, -1, 1, 0, 156.935, 242.432)" font-size="9.9889">Digital Input/Output</text>
    <text x="0" y="0" font-family="'DroidSans'"  stroke-width="0" transform="matrix(1, 0, 0, 1, 93.28, 53.918)" font-size="9.9889">Power</text>
    <text x="0" y="0" font-family="'DroidSans'"  stroke-width="0" transform="matrix(1, 0, 0, 1, 72.6765, 112.121)" font-size="17.98">Arduino </text>
    <line fill="none"  stroke="#000000" stroke-linejoin="round" stroke-linecap="round" y1="404.385" stroke-width="1.9517" x1="107.458" y2="383.147" x2="107.458"/>
    <text x="0" y="0" font-family="'DroidSans'"  stroke-width="0" transform="matrix(1, 0, 0, 1, 96.9275, 372.96)" font-size="9.9889">GND</text>
    <polygon points="206.345,290.319,211.05,293.036,206.345,295.752"  stroke-width="0"/>
    <polygon points="211.05,316.364,206.345,313.643,211.05,310.928"  stroke-width="0"/>
   </g>
  </g>
 </g>
 <g transform="translate(108.972,327.087)">
  <g transform="matrix(0,1,-1,0,0,0)">
   <g  id="schematic" stroke-width="0">
    <g  stroke-width="0">
     <rect width="1.375" x="15.989" y="30.102"  height="13.589" id="connector0pin" stroke-width="0"/>
     <rect width="1.375" x="15.989" y="0.398"  height="13.578" id="connector1pin" stroke-width="0"/>
     <rect width="0.75" x="16.292" y="0"  height="0.799" id="connector1terminal" stroke-width="0"/>
     <rect width="0.75" x="16.292" y="43.032"  height="0.8" id="connector0terminal" stroke-width="0"/>
    </g>
    <line fill="none"  stroke="#000000" stroke-linecap="round" y1="0.852" stroke-width="2.4" x1="16.616" y2="18.477" x2="16.616"/>
    <line fill="none"  stroke="#000000" stroke-linecap="round" y1="18.852" stroke-width="2.4" x1="1.366" y2="18.852" x2="31.366"/>
    <line fill="none"  stroke="#000000" stroke-linecap="round" y1="24.616" stroke-width="2.4" x1="16.616" y2="43.227" x2="16.616"/>
    <line fill="none"  stroke="#000000" y1="11.928" x1="24.688" y2="11.928" stroke-width="0" x2="31.313"/>
    <line fill="none"  stroke="#000000" y1="8.616" x1="28" y2="15.241" stroke-width="0" x2="28"/>
    <path fill="none"  stroke="#000000" stroke-linecap="round" stroke-width="2.4" d="M1.732,29.247c4.079,-3.221,9.23,-5.143,14.83,-5.143c5.495,0,10.559,1.851,14.6,4.963"/>
   </g>
  </g>
 </g>
 <line stroke="#cc1414" stroke-linecap="round" y1="3.61456" x1="258.119" y2="25.9289" stroke-width="2.4" x2="257.955"/>
 <line stroke="#cc1414" stroke-linecap="round" y1="3.61456" x1="44.5192" y2="3.61456" stroke-width="2.4" x2="258.119"/>
 <line stroke="#cc1414" stroke-linecap="round" y1="194.934" x1="44.28" y2="3.61432" stroke-width="2.4" x2="44.5195"/>
 <line stroke="#404040" stroke-linecap="round" y1="450.015" x1="44.5195" y2="448.948" stroke-width="2.4" x2="279.453"/>
 <line stroke="#404040" stroke-linecap="round" y1="448.948" x1="279.453" y2="427.345" stroke-width="2.4" x2="279.233"/>
 <line stroke="#404040" stroke-linecap="round" y1="302.934" x1="44.28" y2="450.015" stroke-width="2.4" x2="44.5195"/>
 <circle fill="black" cx="44.28" cy="302.934" stroke="none" r="3.6" stroke-width="0"/>
 <line stroke="#418dd9" stroke-linecap="round" y1="343.615" x1="129.319" y2="301.215" stroke-width="2.4" x2="129.319"/>
 <line stroke="#418dd9" stroke-linecap="round" y1="301.215" x1="129.319" y2="301.115" stroke-width="2.4" x2="174.031"/>
 <circle fill="black" cx="174.031" cy="301.115" stroke="none" r="3.6" stroke-width="0"/>
 <line stroke="#418dd9" stroke-linecap="round" y1="343.615" x1="107.719" y2="343.615" stroke-width="2.4" x2="129.319"/>
 <line stroke="#418dd9" stroke-linecap="round" y1="343.754" x1="108.572" y2="343.615" stroke-width="2.4" x2="107.719"/>
 <line stroke="#404040" stroke-linecap="round" y1="343.615" x1="44.5192" y2="343.753" stroke-width="2.4" x2="65.5396"/>
 <line stroke="#404040" stroke-linecap="round" y1="302.935" x1="44.28" y2="343.615" stroke-width="2.4" x2="44.5195"/>
 <circle fill="black" cx="44.28" cy="302.935" stroke="none" r="3.6" stroke-width="0"/>
 <line stroke="#418dd9" stroke-linecap="round" y1="301.215" x1="129.319" y2="301.115" stroke-width="2.4" x2="174.031"/>
 <circle fill="black" cx="174.031" cy="301.115" stroke="none" r="3.6" stroke-width="0"/>
 <line stroke="#418dd9" stroke-linecap="round" y1="248.948" x1="128.519" y2="301.215" stroke-width="2.4" x2="129.319"/>
 <line stroke="#418dd9" stroke-linecap="round" y1="248.934" x1="109.08" y2="248.948" stroke-width="2.4" x2="128.519"/>
 <g transform="translate(269.094,8.75616)">
  <g fill="#000000" font-family="'DroidSans'" stroke="none" font-style="normal" fill-opacity="1" font-weight="normal" id="schematicLabel" font-size="9">
   <text x="0" y="6.75">Arduino Uno and Ethernet shield</text>
  </g>
 </g>
 <g transform="translate(47.76,199.454)">
  <g fill="#000000" font-family="'DroidSans'" stroke="none" font-style="normal" fill-opacity="1" font-weight="normal" id="schematicLabel" font-size="9">
   <text x="0" y="6.75">T1 LM35DZ</text>
  </g>
 </g>
 <g transform="translate(74.5556,363.871)">
  <g fill="#000000" font-family="'DroidSans'" stroke="none" font-style="normal" fill-opacity="1" font-weight="normal" id="schematicLabel" font-size="9">
   <text x="0" y="6.75">C1</text>
   <text x="0" y="15.75">10&#xb5;F</text>
   <text x="0" y="24.75">10V</text>
  </g>
 </g>
</svg>
